<svg xmlns="http://www.w3.org/2000/svg" style="display: none;">
  <!-- Logo Icon -->
  <symbol id="logo" viewBox="0 0 32 32">
    <path d="M16 2L4 8v16l12 6 12-6V8L16 2zm0 2.83l8.5 4.25L16 13.33 7.5 9.08 16 4.83zm-10 6.34L14 14.5v11l-8-4V11.17zm20 0v10.83l-8 4v-11l8-3.33z" fill="currentColor"/>
    <circle cx="16" cy="16" r="3" fill="currentColor" opacity="0.8"/>
  </symbol>

  <!-- Collaboration Icon -->
  <symbol id="collaboration" viewBox="0 0 48 48">
    <circle cx="16" cy="12" r="6" fill="none" stroke="currentColor" stroke-width="2"/>
    <circle cx="32" cy="12" r="6" fill="none" stroke="currentColor" stroke-width="2"/>
    <circle cx="24" cy="28" r="6" fill="none" stroke="currentColor" stroke-width="2"/>
    <path d="M22 18h4M16 22l6 4M32 22l-6 4" stroke="currentColor" stroke-width="2" stroke-linecap="round"/>
    <path d="M8 32c0-4.4 3.6-8 8-8M40 32c0-4.4-3.6-8-8-8M24 40c0-4.4-3.6-8-8-8h8c4.4 0 8 3.6 8 8" fill="none" stroke="currentColor" stroke-width="2"/>
  </symbol>

  <!-- Mentorship Icon -->
  <symbol id="mentorship" viewBox="0 0 48 48">
    <circle cx="18" cy="14" r="8" fill="none" stroke="currentColor" stroke-width="2"/>
    <path d="M6 38c0-6.6 5.4-12 12-12s12 5.4 12 12" fill="none" stroke="currentColor" stroke-width="2"/>
    <path d="M32 14l8-4v8l-8-4zM32 22h12v4H32zM32 30h8v4h-8z" fill="currentColor"/>
    <circle cx="36" cy="14" r="2" fill="currentColor"/>
  </symbol>

  <!-- Projects Icon -->
  <symbol id="projects" viewBox="0 0 48 48">
    <rect x="6" y="8" width="36" height="28" rx="2" fill="none" stroke="currentColor" stroke-width="2"/>
    <path d="M6 16h36M14 8v8M24 8v8M34 8v8" stroke="currentColor" stroke-width="2"/>
    <rect x="10" y="20" width="6" height="4" fill="currentColor" rx="1"/>
    <rect x="21" y="20" width="6" height="4" fill="currentColor" rx="1"/>
    <rect x="32" y="20" width="6" height="4" fill="currentColor" rx="1"/>
    <rect x="10" y="28" width="12" height="4" fill="currentColor" rx="1"/>
    <rect x="26" y="28" width="12" height="4" fill="currentColor" rx="1"/>
    <path d="M12 40l4-4h16l4 4" stroke="currentColor" stroke-width="2" stroke-linecap="round"/>
  </symbol>

  <!-- Networking Icon -->
  <symbol id="networking" viewBox="0 0 48 48">
    <circle cx="12" cy="12" r="6" fill="none" stroke="currentColor" stroke-width="2"/>
    <circle cx="36" cy="12" r="6" fill="none" stroke="currentColor" stroke-width="2"/>
    <circle cx="12" cy="36" r="6" fill="none" stroke="currentColor" stroke-width="2"/>
    <circle cx="36" cy="36" r="6" fill="none" stroke="currentColor" stroke-width="2"/>
    <circle cx="24" cy="24" r="4" fill="currentColor"/>
    <path d="M18 12l6 6M30 12l-6 6M18 36l6-6M30 36l-6-6" stroke="currentColor" stroke-width="2"/>
    <path d="M16 8l-2-2M32 8l2-2M16 40l-2 2M32 40l2 2" stroke="currentColor" stroke-width="2" stroke-linecap="round"/>
  </symbol>

  <!-- Check Icon -->
  <symbol id="check" viewBox="0 0 24 24">
    <circle cx="12" cy="12" r="10" fill="currentColor"/>
    <path d="M9 12l2 2 4-4" stroke="white" stroke-width="2" stroke-linecap="round" stroke-linejoin="round" fill="none"/>
  </symbol>

  <!-- Email Icon -->
  <symbol id="email" viewBox="0 0 24 24">
    <rect x="2" y="4" width="20" height="16" rx="2" fill="none" stroke="currentColor" stroke-width="2"/>
    <path d="M22 6l-10 7L2 6" stroke="currentColor" stroke-width="2" stroke-linecap="round"/>
  </symbol>

  <!-- Discord Icon -->
  <symbol id="discord" viewBox="0 0 24 24">
    <path d="M20.317 4.37a19.791 19.791 0 0 0-4.885-1.515.074.074 0 0 0-.079.037c-.21.375-.444.864-.608 1.25a18.27 18.27 0 0 0-5.487 0 12.64 12.64 0 0 0-.617-1.25.077.077 0 0 0-.079-.037A19.736 19.736 0 0 0 3.677 4.37a.07.07 0 0 0-.032.027C.533 9.046-.32 13.58.099 18.057a.082.082 0 0 0 .031.057 19.9 19.9 0 0 0 5.993 3.03.078.078 0 0 0 .084-.028 14.09 14.09 0 0 0 1.226-1.994.076.076 0 0 0-.041-.106 13.107 13.107 0 0 1-1.872-.892.077.077 0 0 1-.008-.128 10.2 10.2 0 0 0 .372-.292.074.074 0 0 1 .077-.01c3.928 1.793 8.18 1.793 12.062 0a.074.074 0 0 1 .078.01c.12.098.246.198.373.292a.077.077 0 0 1-.006.127 12.299 12.299 0 0 1-1.873.892.077.077 0 0 0-.041.107c.36.698.772 1.362 1.225 1.993a.076.076 0 0 0 .084.028 19.839 19.839 0 0 0 6.002-3.03.077.077 0 0 0 .032-.054c.5-5.177-.838-9.674-3.549-13.66a.061.061 0 0 0-.031-.03zM8.02 15.33c-1.183 0-2.157-1.085-2.157-2.419 0-1.333.956-2.419 2.157-2.419 1.21 0 2.176 1.096 2.157 2.42 0 1.333-.956 2.418-2.157 2.418zm7.975 0c-1.183 0-2.157-1.085-2.157-2.419 0-1.333.955-2.419 2.157-2.419 1.21 0 2.176 1.096 2.157 2.42 0 1.333-.946 2.418-2.157 2.418z" fill="currentColor"/>
  </symbol>

  <!-- GitHub Icon -->
  <symbol id="github" viewBox="0 0 24 24">
    <path d="M12 0c-6.626 0-12 5.373-12 12 0 5.302 3.438 9.8 8.207 11.387.599.111.793-.261.793-.577v-2.234c-3.338.726-4.033-1.416-4.033-1.416-.546-1.387-1.333-1.756-1.333-1.756-1.089-.745.083-.729.083-.729 1.205.084 1.839 1.237 1.839 1.237 1.07 1.834 2.807 1.304 3.492.997.107-.775.418-1.305.762-1.604-2.665-.305-5.467-1.334-5.467-5.931 0-1.311.469-2.381 1.236-3.221-.124-.303-.535-1.524.117-3.176 0 0 1.008-.322 3.301 1.23.957-.266 1.983-.399 3.003-.404 1.02.005 2.047.138 3.006.404 2.291-1.552 3.297-1.23 3.297-1.23.653 1.653.242 2.874.118 3.176.77.84 1.235 1.911 1.235 3.221 0 4.609-2.807 5.624-5.479 5.921.43.372.823 1.102.823 2.222v3.293c0 .319.192.694.801.576 4.765-1.589 8.199-6.086 8.199-11.386 0-6.627-5.373-12-12-12z" fill="currentColor"/>
  </symbol>
</svg>
